<svg version="1.0" xmlns="http://www.w3.org/2000/svg"
 width="100.000000pt" height="100.000000pt" viewBox="0 0 100.000000 100.000000"
 preserveAspectRatio="xMidYMid meet">

<g transform="translate(0.000000,100.000000) scale(0.100000,-0.100000)"
fill="currentColor" stroke="none">
<path d="M240 500 l0 -340 100 0 100 0 0 340 0 340 -100 0 -100 0 0 -340z
m160 0 l0 -300 -60 0 -60 0 0 300 0 300 60 0 60 0 0 -300z"/>
<path d="M560 500 l0 -340 100 0 100 0 0 340 0 340 -100 0 -100 0 0 -340z
m160 0 l0 -300 -60 0 -60 0 0 300 0 300 60 0 60 0 0 -300z"/>
</g>
</svg>
