<svg width="21" height="22" viewBox="0 0 21 22" fill="none" xmlns="http://www.w3.org/2000/svg">
    <mask id="path-1-outside-1_150_2172" maskUnits="userSpaceOnUse" x="0" y="0" width="21" height="22" fill="black">
        <rect fill="white" width="21" height="22"/>
        <path fill-rule="evenodd" clip-rule="evenodd" d="M1 8H5L10 3V11V19L5 14H1V8ZM15.0879 9.2998L12.8662 5.75781H11.438L14.3579 10.3345L11.3682 15H12.8091L15.0879 11.3882L17.3667 15H18.8076L15.8179 10.3345L18.7378 5.75781H17.3096L15.0879 9.2998Z"/>
    </mask>
    <path fill-rule="evenodd" clip-rule="evenodd" d="M1 8H5L10 3V11V19L5 14H1V8ZM15.0879 9.2998L12.8662 5.75781H11.438L14.3579 10.3345L11.3682 15H12.8091L15.0879 11.3882L17.3667 15H18.8076L15.8179 10.3345L18.7378 5.75781H17.3096L15.0879 9.2998Z" fill="currentColor"/>
    <path d="M5 8V9H5.41421L5.70711 8.70711L5 8ZM1 8V7H0V8H1ZM10 3H11V0.585786L9.29289 2.29289L10 3ZM10 19L9.29289 19.7071L11 21.4142V19H10ZM5 14L5.70711 13.2929L5.41421 13H5V14ZM1 14H0V15H1V14ZM12.8662 5.75781L13.7134 5.22645L13.4194 4.75781H12.8662V5.75781ZM15.0879 9.2998L14.2407 9.83117L15.0879 11.1818L15.935 9.83117L15.0879 9.2998ZM11.438 5.75781V4.75781H9.6138L10.595 6.29567L11.438 5.75781ZM14.3579 10.3345L15.1999 10.874L15.5449 10.3357L15.2009 9.79661L14.3579 10.3345ZM11.3682 15L10.5262 14.4605L9.53964 16H11.3682V15ZM12.8091 15V16H13.3606L13.6548 15.5336L12.8091 15ZM15.0879 11.3882L15.9336 10.8546L15.0879 9.51413L14.2422 10.8546L15.0879 11.3882ZM17.3667 15L16.521 15.5336L16.8152 16H17.3667V15ZM18.8076 15V16H20.6361L19.6496 14.4605L18.8076 15ZM15.8179 10.3345L14.9748 9.79661L14.6309 10.3357L14.9759 10.874L15.8179 10.3345ZM18.7378 5.75781L19.5808 6.29567L20.562 4.75781H18.7378V5.75781ZM17.3096 5.75781V4.75781H16.7564L16.4624 5.22645L17.3096 5.75781ZM5 8V7H1V8V9H5V8ZM10 3L9.29289 2.29289L4.29289 7.29289L5 8L5.70711 8.70711L10.7071 3.70711L10 3ZM10 11H11V3H10H9V11H10ZM10 19H11V11H10H9V19H10ZM5 14L4.29289 14.7071L9.29289 19.7071L10 19L10.7071 18.2929L5.70711 13.2929L5 14ZM1 14V15H5V14V13H1V14ZM1 8H0V14H1H2V8H1ZM12.8662 5.75781L12.0191 6.28918L14.2407 9.83117L15.0879 9.2998L15.935 8.76844L13.7134 5.22645L12.8662 5.75781ZM11.438 5.75781V6.75781H12.8662V5.75781V4.75781H11.438V5.75781ZM14.3579 10.3345L15.2009 9.79661L12.281 5.21995L11.438 5.75781L10.595 6.29567L13.5149 10.8723L14.3579 10.3345ZM11.3682 15L12.2101 15.5395L15.1999 10.874L14.3579 10.3345L13.516 9.79493L10.5262 14.4605L11.3682 15ZM12.8091 15V14H11.3682V15V16H12.8091V15ZM15.0879 11.3882L14.2422 10.8546L11.9633 14.4664L12.8091 15L13.6548 15.5336L15.9336 11.9218L15.0879 11.3882ZM17.3667 15L18.2124 14.4664L15.9336 10.8546L15.0879 11.3882L14.2422 11.9218L16.521 15.5336L17.3667 15ZM18.8076 15V14H17.3667V15V16H18.8076V15ZM15.8179 10.3345L14.9759 10.874L17.9657 15.5395L18.8076 15L19.6496 14.4605L16.6598 9.79493L15.8179 10.3345ZM18.7378 5.75781L17.8948 5.21995L14.9748 9.79661L15.8179 10.3345L16.6609 10.8723L19.5808 6.29567L18.7378 5.75781ZM17.3096 5.75781V6.75781H18.7378V5.75781V4.75781H17.3096V5.75781ZM15.0879 9.2998L15.935 9.83117L18.1567 6.28918L17.3096 5.75781L16.4624 5.22645L14.2407 8.76844L15.0879 9.2998Z" fill="black" fill-opacity="0.1" mask="url(#path-1-outside-1_150_2172)"/>
</svg>
