<svg version="1.0" xmlns="http://www.w3.org/2000/svg"
 width="78.000000pt" height="78.000000pt" viewBox="0 0 78.000000 78.000000"
 preserveAspectRatio="xMidYMid meet">

<g transform="translate(0.000000,78.000000) scale(0.100000,-0.100000)"
fill="currentColor" stroke="none">
<path d="M297 634 c-4 -4 -7 -38 -7 -75 l0 -68 -72 -3 c-65 -3 -73 -5 -73 -23
0 -18 8 -20 86 -23 65 -2 89 1 98 12 19 22 11 180 -9 184 -9 1 -19 0 -23 -4z"/>
<path d="M447 634 c-14 -14 -8 -171 7 -183 9 -8 45 -11 98 -9 75 3 83 5 83 23
0 18 -8 20 -72 23 l-72 3 -3 72 c-2 55 -7 72 -18 75 -9 1 -19 0 -23 -4z"/>
<path d="M144 325 c-11 -27 7 -35 76 -35 l69 0 3 -72 c3 -65 5 -73 23 -73 18
0 20 8 23 83 2 53 -1 89 -9 98 -17 20 -177 20 -185 -1z"/>
<path d="M451 326 c-8 -9 -11 -43 -9 -98 3 -75 5 -83 23 -83 18 0 20 8 23 72
l3 72 72 3 c64 3 72 5 72 23 0 18 -8 20 -86 23 -65 2 -89 -1 -98 -12z"/>
</g>
</svg>
